# xmcd CD database file
#
# Track frame offsets:
#	150
#	17160
#	52647
#	88597
#	115612
#	163035
#	189107
#	231580
#	257070
#
# Disc length: 3971 seconds
#
# Revision: 0
# Processed by: cddbd v1.5.1PL0 Copyright (c) Steve Scherf et al.
# Submitted via: CDex 1.51
#
DISCID=650f8109
DTITLE=Miles Davis and John Coltrane - Best Of 1955-1961
DYEAR=1900
DGENRE=Jazz
TTITLE0=Two Bass Hit 19551026
TTITLE1=Dear Old Stockholm 19560605
TTITLE2=Bye Bye Blackbird 19560605
TTITLE3='Round Midnight 19560910
TTITLE4=Straight, No Chaser (Alternate Take) 19580204
TTITLE5=Milestones 19580204
TTITLE6=So What 19590302
TTITLE7=Blue In Green 19590302
TTITLE8=Some Day My Prince Will Come 19610320
EXTD=
EXTT0=
EXTT1=
EXTT2=
EXTT3=
EXTT4=
EXTT5=
EXTT6=
EXTT7=
EXTT8=
PLAYORDER=
